<?xml version="1.0" encoding="UTF-8"?>
<!DOCTYPE svg PUBLIC "-//W3C//DTD SVG 1.1//EN" "http://www.w3.org/Graphics/SVG/1.1/DTD/svg11.dtd">
<svg width="160mm" height="90mm" viewBox="0 0 16000 9000" version="1.1" xmlns="http://www.w3.org/2000/svg" xmlns:xlink="http://www.w3.org/1999/xlink" stroke-width="28.222" stroke-linejoin="round" xml:space="preserve">
 <path fill="rgb(255,255,255)" stroke="none" d="M 8000,8999 L 0,8999 0,0 15999,0 15999,8999 8000,8999 Z"/>
 <path fill="none" stroke="rgb(179,179,179)" stroke-linejoin="round" d="M 7364,8172 L 1127,8172 1127,379 13601,379 13601,8172 7364,8172 Z"/>
 <path fill="none" stroke="rgb(179,179,179)" stroke-linejoin="round" d="M 13601,8171 L 1127,8171"/>
 <path fill="none" stroke="rgb(179,179,179)" stroke-linejoin="round" d="M 13601,7391 L 1127,7391"/>
 <path fill="none" stroke="rgb(179,179,179)" stroke-linejoin="round" d="M 13601,6612 L 1127,6612"/>
 <path fill="none" stroke="rgb(179,179,179)" stroke-linejoin="round" d="M 13601,5832 L 1127,5832"/>
 <path fill="none" stroke="rgb(179,179,179)" stroke-linejoin="round" d="M 13601,5053 L 1127,5053"/>
 <path fill="none" stroke="rgb(179,179,179)" stroke-linejoin="round" d="M 13601,4275 L 1127,4275"/>
 <path fill="none" stroke="rgb(179,179,179)" stroke-linejoin="round" d="M 13601,3495 L 1127,3495"/>
 <path fill="none" stroke="rgb(179,179,179)" stroke-linejoin="round" d="M 13601,2716 L 1127,2716"/>
 <path fill="none" stroke="rgb(179,179,179)" stroke-linejoin="round" d="M 13601,1936 L 1127,1936"/>
 <path fill="none" stroke="rgb(179,179,179)" stroke-linejoin="round" d="M 13601,1157 L 1127,1157"/>
 <path fill="none" stroke="rgb(179,179,179)" stroke-linejoin="round" d="M 13601,378 L 1127,378"/>
 <path fill="none" stroke="rgb(179,179,179)" stroke-linejoin="round" d="M 1127,8321 L 1127,8171"/>
 <path fill="none" stroke="rgb(179,179,179)" stroke-linejoin="round" d="M 1127,8321 L 1127,8171"/>
 <path fill="none" stroke="rgb(179,179,179)" stroke-linejoin="round" d="M 3206,8321 L 3206,8171"/>
 <path fill="none" stroke="rgb(179,179,179)" stroke-linejoin="round" d="M 3206,8321 L 3206,8171"/>
 <path fill="none" stroke="rgb(179,179,179)" stroke-linejoin="round" d="M 5285,8321 L 5285,8171"/>
 <path fill="none" stroke="rgb(179,179,179)" stroke-linejoin="round" d="M 5285,8321 L 5285,8171"/>
 <path fill="none" stroke="rgb(179,179,179)" stroke-linejoin="round" d="M 7364,8321 L 7364,8171"/>
 <path fill="none" stroke="rgb(179,179,179)" stroke-linejoin="round" d="M 7364,8321 L 7364,8171"/>
 <path fill="none" stroke="rgb(179,179,179)" stroke-linejoin="round" d="M 9442,8321 L 9442,8171"/>
 <path fill="none" stroke="rgb(179,179,179)" stroke-linejoin="round" d="M 9442,8321 L 9442,8171"/>
 <path fill="none" stroke="rgb(179,179,179)" stroke-linejoin="round" d="M 11521,8321 L 11521,8171"/>
 <path fill="none" stroke="rgb(179,179,179)" stroke-linejoin="round" d="M 11521,8321 L 11521,8171"/>
 <path fill="none" stroke="rgb(179,179,179)" stroke-linejoin="round" d="M 13601,8321 L 13601,8171"/>
 <path fill="none" stroke="rgb(179,179,179)" stroke-linejoin="round" d="M 13601,8321 L 13601,8171"/>
 <path fill="none" stroke="rgb(179,179,179)" stroke-linejoin="round" d="M 1127,8171 L 13601,8171"/>
 <path fill="none" stroke="rgb(179,179,179)" stroke-linejoin="round" d="M 977,8171 L 1127,8171"/>
 <path fill="none" stroke="rgb(179,179,179)" stroke-linejoin="round" d="M 977,8171 L 1127,8171"/>
 <path fill="none" stroke="rgb(179,179,179)" stroke-linejoin="round" d="M 977,7391 L 1127,7391"/>
 <path fill="none" stroke="rgb(179,179,179)" stroke-linejoin="round" d="M 977,7391 L 1127,7391"/>
 <path fill="none" stroke="rgb(179,179,179)" stroke-linejoin="round" d="M 977,6612 L 1127,6612"/>
 <path fill="none" stroke="rgb(179,179,179)" stroke-linejoin="round" d="M 977,6612 L 1127,6612"/>
 <path fill="none" stroke="rgb(179,179,179)" stroke-linejoin="round" d="M 977,5832 L 1127,5832"/>
 <path fill="none" stroke="rgb(179,179,179)" stroke-linejoin="round" d="M 977,5832 L 1127,5832"/>
 <path fill="none" stroke="rgb(179,179,179)" stroke-linejoin="round" d="M 977,5053 L 1127,5053"/>
 <path fill="none" stroke="rgb(179,179,179)" stroke-linejoin="round" d="M 977,5053 L 1127,5053"/>
 <path fill="none" stroke="rgb(179,179,179)" stroke-linejoin="round" d="M 977,4275 L 1127,4275"/>
 <path fill="none" stroke="rgb(179,179,179)" stroke-linejoin="round" d="M 977,4275 L 1127,4275"/>
 <path fill="none" stroke="rgb(179,179,179)" stroke-linejoin="round" d="M 977,3495 L 1127,3495"/>
 <path fill="none" stroke="rgb(179,179,179)" stroke-linejoin="round" d="M 977,3495 L 1127,3495"/>
 <path fill="none" stroke="rgb(179,179,179)" stroke-linejoin="round" d="M 977,2716 L 1127,2716"/>
 <path fill="none" stroke="rgb(179,179,179)" stroke-linejoin="round" d="M 977,2716 L 1127,2716"/>
 <path fill="none" stroke="rgb(179,179,179)" stroke-linejoin="round" d="M 977,1936 L 1127,1936"/>
 <path fill="none" stroke="rgb(179,179,179)" stroke-linejoin="round" d="M 977,1936 L 1127,1936"/>
 <path fill="none" stroke="rgb(179,179,179)" stroke-linejoin="round" d="M 977,1157 L 1127,1157"/>
 <path fill="none" stroke="rgb(179,179,179)" stroke-linejoin="round" d="M 977,1157 L 1127,1157"/>
 <path fill="none" stroke="rgb(179,179,179)" stroke-linejoin="round" d="M 977,378 L 1127,378"/>
 <path fill="none" stroke="rgb(179,179,179)" stroke-linejoin="round" d="M 977,378 L 1127,378"/>
 <path fill="none" stroke="rgb(179,179,179)" stroke-linejoin="round" d="M 1127,8171 L 1127,378"/>
 <path fill="rgb(0,69,134)" stroke="none" d="M 12041,8171 L 13081,8171 13081,6393 12041,6393 12041,8171 Z"/>
 <path fill="rgb(0,69,134)" stroke="none" d="M 9962,8171 L 11002,8171 11002,6596 9962,6596 9962,8171 Z"/>
 <path fill="rgb(0,69,134)" stroke="none" d="M 7884,8171 L 8922,8171 8922,6799 7884,6799 7884,8171 Z"/>
 <path fill="rgb(0,69,134)" stroke="none" d="M 5805,8171 L 6844,8171 6844,6581 5805,6581 5805,8171 Z"/>
 <path fill="rgb(0,69,134)" stroke="none" d="M 3725,8171 L 4765,8171 4765,6471 3725,6471 3725,8171 Z"/>
 <path fill="rgb(0,69,134)" stroke="none" d="M 1646,8171 L 2686,8171 2686,6768 1646,6768 1646,8171 Z"/>
 <path fill="rgb(255,66,14)" stroke="none" d="M 12041,6393 L 13081,6393 13081,2482 12041,2482 12041,6393 Z"/>
 <path fill="rgb(255,66,14)" stroke="none" d="M 9962,6596 L 11002,6596 11002,3885 9962,3885 9962,6596 Z"/>
 <path fill="rgb(255,66,14)" stroke="none" d="M 7884,6799 L 8922,6799 8922,4165 7884,4165 7884,6799 Z"/>
 <path fill="rgb(255,66,14)" stroke="none" d="M 5805,6581 L 6844,6581 6844,3433 5805,3433 5805,6581 Z"/>
 <path fill="rgb(255,66,14)" stroke="none" d="M 3725,6471 L 4765,6471 4765,3978 3725,3978 3725,6471 Z"/>
 <path fill="rgb(255,66,14)" stroke="none" d="M 1646,6768 L 2686,6768 2686,4041 1646,4041 1646,6768 Z"/>
 <path fill="rgb(255,211,32)" stroke="none" d="M 12041,2482 L 13081,2482 13081,1515 12041,1515 12041,2482 Z"/>
 <path fill="rgb(255,211,32)" stroke="none" d="M 9962,3885 L 11002,3885 11002,2872 9962,2872 9962,3885 Z"/>
 <path fill="rgb(255,211,32)" stroke="none" d="M 7884,4165 L 8922,4165 8922,3183 7884,3183 7884,4165 Z"/>
 <path fill="rgb(255,211,32)" stroke="none" d="M 5805,3433 L 6844,3433 6844,2607 5805,2607 5805,3433 Z"/>
 <path fill="rgb(255,211,32)" stroke="none" d="M 3725,3978 L 4765,3978 4765,3105 3725,3105 3725,3978 Z"/>
 <path fill="rgb(255,211,32)" stroke="none" d="M 1646,4041 L 2686,4041 2686,3417 1646,3417 1646,4041 Z"/>
 <path fill="rgb(87,157,28)" stroke="none" d="M 12041,1515 L 13081,1515 13081,1297 12041,1297 12041,1515 Z"/>
 <path fill="rgb(87,157,28)" stroke="none" d="M 9962,2872 L 11002,2872 11002,2731 9962,2731 9962,2872 Z"/>
 <path fill="rgb(87,157,28)" stroke="none" d="M 7884,3183 L 8922,3183 8922,3043 7884,3043 7884,3183 Z"/>
 <path fill="rgb(87,157,28)" stroke="none" d="M 5805,2607 L 6844,2607 6844,2482 5805,2482 5805,2607 Z"/>
 <path fill="rgb(87,157,28)" stroke="none" d="M 3725,3105 L 4765,3105 4765,2981 3725,2981 3725,3105 Z"/>
 <path fill="rgb(87,157,28)" stroke="none" d="M 1646,3417 L 2686,3417 2686,3355 1646,3355 1646,3417 Z"/>
 <text class="TextShape"><tspan class="TextParagraph" font-family="Liberation Sans, sans-serif" font-size="353px" font-weight="400"><tspan class="TextPosition" x="1981" y="8739"><tspan fill="rgb(0,0,0)" stroke="none">J1</tspan></tspan></tspan></text>
 <text class="TextShape"><tspan class="TextParagraph" font-family="Liberation Sans, sans-serif" font-size="353px" font-weight="400"><tspan class="TextPosition" x="4060" y="8739"><tspan fill="rgb(0,0,0)" stroke="none">J2</tspan></tspan></tspan></text>
 <text class="TextShape"><tspan class="TextParagraph" font-family="Liberation Sans, sans-serif" font-size="353px" font-weight="400"><tspan class="TextPosition" x="6139" y="8739"><tspan fill="rgb(0,0,0)" stroke="none">J3</tspan></tspan></tspan></text>
 <text class="TextShape"><tspan class="TextParagraph" font-family="Liberation Sans, sans-serif" font-size="353px" font-weight="400"><tspan class="TextPosition" x="8219" y="8739"><tspan fill="rgb(0,0,0)" stroke="none">J4</tspan></tspan></tspan></text>
 <text class="TextShape"><tspan class="TextParagraph" font-family="Liberation Sans, sans-serif" font-size="353px" font-weight="400"><tspan class="TextPosition" x="10298" y="8739"><tspan fill="rgb(0,0,0)" stroke="none">J5</tspan></tspan></tspan></text>
 <text class="TextShape"><tspan class="TextParagraph" font-family="Liberation Sans, sans-serif" font-size="353px" font-weight="400"><tspan class="TextPosition" x="12377" y="8739"><tspan fill="rgb(0,0,0)" stroke="none">J6</tspan></tspan></tspan></text>
 <text class="TextShape"><tspan class="TextParagraph" font-family="Liberation Sans, sans-serif" font-size="353px" font-weight="400"><tspan class="TextPosition" x="692" y="8292"><tspan fill="rgb(0,0,0)" stroke="none">0</tspan></tspan></tspan></text>
 <text class="TextShape"><tspan class="TextParagraph" font-family="Liberation Sans, sans-serif" font-size="353px" font-weight="400"><tspan class="TextPosition" x="507" y="7512"><tspan fill="rgb(0,0,0)" stroke="none">50</tspan></tspan></tspan></text>
 <text class="TextShape"><tspan class="TextParagraph" font-family="Liberation Sans, sans-serif" font-size="353px" font-weight="400"><tspan class="TextPosition" x="321" y="6733"><tspan fill="rgb(0,0,0)" stroke="none">100</tspan></tspan></tspan></text>
 <text class="TextShape"><tspan class="TextParagraph" font-family="Liberation Sans, sans-serif" font-size="353px" font-weight="400"><tspan class="TextPosition" x="321" y="5953"><tspan fill="rgb(0,0,0)" stroke="none">150</tspan></tspan></tspan></text>
 <text class="TextShape"><tspan class="TextParagraph" font-family="Liberation Sans, sans-serif" font-size="353px" font-weight="400"><tspan class="TextPosition" x="321" y="5174"><tspan fill="rgb(0,0,0)" stroke="none">200</tspan></tspan></tspan></text>
 <text class="TextShape"><tspan class="TextParagraph" font-family="Liberation Sans, sans-serif" font-size="353px" font-weight="400"><tspan class="TextPosition" x="321" y="4395"><tspan fill="rgb(0,0,0)" stroke="none">250</tspan></tspan></tspan></text>
 <text class="TextShape"><tspan class="TextParagraph" font-family="Liberation Sans, sans-serif" font-size="353px" font-weight="400"><tspan class="TextPosition" x="321" y="3615"><tspan fill="rgb(0,0,0)" stroke="none">300</tspan></tspan></tspan></text>
 <text class="TextShape"><tspan class="TextParagraph" font-family="Liberation Sans, sans-serif" font-size="353px" font-weight="400"><tspan class="TextPosition" x="321" y="2836"><tspan fill="rgb(0,0,0)" stroke="none">350</tspan></tspan></tspan></text>
 <text class="TextShape"><tspan class="TextParagraph" font-family="Liberation Sans, sans-serif" font-size="353px" font-weight="400"><tspan class="TextPosition" x="321" y="2056"><tspan fill="rgb(0,0,0)" stroke="none">400</tspan></tspan></tspan></text>
 <text class="TextShape"><tspan class="TextParagraph" font-family="Liberation Sans, sans-serif" font-size="353px" font-weight="400"><tspan class="TextPosition" x="321" y="1277"><tspan fill="rgb(0,0,0)" stroke="none">450</tspan></tspan></tspan></text>
 <text class="TextShape"><tspan class="TextParagraph" font-family="Liberation Sans, sans-serif" font-size="353px" font-weight="400"><tspan class="TextPosition" x="321" y="498"><tspan fill="rgb(0,0,0)" stroke="none">500</tspan></tspan></tspan></text>
 <path fill="rgb(0,69,134)" stroke="none" d="M 14143,5351 L 14037,5351 14037,5140 14248,5140 14248,5351 14143,5351 Z"/>
 <path fill="rgb(255,66,14)" stroke="none" d="M 14143,4853 L 14037,4853 14037,4642 14248,4642 14248,4853 14143,4853 Z"/>
 <path fill="rgb(255,211,32)" stroke="none" d="M 14143,4356 L 14037,4356 14037,4145 14248,4145 14248,4356 14143,4356 Z"/>
 <path fill="rgb(87,157,28)" stroke="none" d="M 14143,3858 L 14037,3858 14037,3647 14248,3647 14248,3858 14143,3858 Z"/>
 <text class="TextShape"><tspan class="TextParagraph" font-family="Liberation Sans, sans-serif" font-size="353px" font-weight="400"><tspan class="TextPosition" x="14348" y="3872"><tspan fill="rgb(0,0,0)" stroke="none">tip 2b</tspan></tspan></tspan></text>
 <text class="TextShape"><tspan class="TextParagraph" font-family="Liberation Sans, sans-serif" font-size="353px" font-weight="400"><tspan class="TextPosition" x="14348" y="4370"><tspan fill="rgb(0,0,0)" stroke="none">tip 2a</tspan></tspan></tspan></text>
 <text class="TextShape"><tspan class="TextParagraph" font-family="Liberation Sans, sans-serif" font-size="353px" font-weight="400"><tspan class="TextPosition" x="14348" y="4867"><tspan fill="rgb(0,0,0)" stroke="none">tip 1</tspan></tspan></tspan></text>
 <text class="TextShape"><tspan class="TextParagraph" font-family="Liberation Sans, sans-serif" font-size="353px" font-weight="400"><tspan class="TextPosition" x="14348" y="5365"><tspan fill="rgb(0,0,0)" stroke="none">bez opk.</tspan></tspan></tspan></text>
</svg>